<svg width="152" height="152" viewBox="0 0 152 152" fill="none" xmlns="http://www.w3.org/2000/svg">
<path d="M69.6157 59.3983L55.8379 82.3838C52.7846 87.4832 46.602 89.7729 40.9706 87.8892L8.78431 77.1448C0.992715 74.5444 -2.38998 65.3857 1.83522 58.3391L12.6041 40.3642L69.6157 59.3919V59.3983ZM82.285 59.3983L96.0628 82.3838C99.1161 87.4832 105.299 89.7729 110.93 87.8892L143.351 77.0687C151.022 74.5063 154.354 65.4935 150.192 58.5484L139.297 40.3705L82.285 59.3983ZM66.7018 88.9167C62.0015 96.7561 53.7538 101.253 45.0691 101.253C42.3768 101.253 39.6466 100.828 36.9607 99.9274L12.6041 91.8025V132.972L69.6157 152V84.0519L66.7018 88.9103V88.9167ZM114.94 99.9274C112.254 100.828 109.524 101.253 106.832 101.253C98.1469 101.253 89.8992 96.7624 85.1989 88.9167L82.285 84.0582V152L139.297 132.972V91.8025L114.94 99.9274ZM75.9504 48.1465L116.403 34.6432L91.6222 9.831L58.9989 42.489L75.9504 48.1465ZM45.5568 38.0048L75.0635 8.46735L66.6068 0L32.8749 33.7679L45.5568 38.0048Z" fill="white"/>
</svg>
