<svg width="130" height="130" viewBox="0 0 130 130" fill="none" xmlns="http://www.w3.org/2000/svg">
<path d="M0 25C0 11.1929 11.1929 0 25 0H105C118.807 0 130 11.1929 130 25V105C130 118.807 118.807 130 105 130H25C11.1929 130 0 118.807 0 105V25Z" fill="#7ABA42"/>
<path d="M57.5924 43.2875C54.6654 45.1157 58.1314 43.2874 50.9841 43.2874C51.2904 40.9617 52.4919 45.713 45.1796 48.1506C45.1796 41.0197 53.5867 37.8031 60.7341 37.8031C60.7341 42.0689 57.5924 36.1567 57.5924 43.2875ZM104.4 39.3617C109.566 39.3617 113.75 43.5364 113.75 48.6898V73.1384V93.8718C113.75 99.3648 109.285 103.819 103.78 103.819H26.2202C20.7146 103.819 16.25 99.3648 16.25 93.8718V73.1184V48.6898C16.25 43.5364 20.4343 39.3617 25.5996 39.3617H44.2987L45.1797 35.6465C46.521 29.8939 51.6663 25.8191 57.5924 25.8191H72.4276C78.3537 25.8191 83.499 29.8939 84.8404 35.6465L85.7012 39.3617H104.4ZM35.75 52.8245C35.75 50.2478 33.6478 48.1505 31.0652 48.1505C28.4625 48.1505 26.3604 50.2478 26.3604 52.8245C26.3604 55.4012 28.4625 57.4985 31.0452 57.4985C33.6478 57.5185 35.75 55.4212 35.75 52.8245ZM88.0637 71.7003C88.0637 58.9966 77.733 48.6898 65 48.6898C52.2669 48.6898 41.9363 58.9966 41.9363 71.7003C41.9363 84.404 52.2669 94.7108 65 94.7108C77.733 94.7108 88.0637 84.404 88.0637 71.7003Z" fill="#FCFCFC"/>
<path d="M65.7883 81.1134L69.4485 74.5651L69.4659 76.96L77.1692 76.9426C78.5457 76.7971 79.7525 76.2392 80.6265 75.1899C77.8372 80.8797 77.0339 84.9057 71.2467 84.9081H69.4659L69.4485 87.5691L65.7883 81.1134ZM56.9712 84.966C52.8527 83.717 50.9311 78.6571 49.0474 75.0915C49.9108 75.8743 51.5265 76.9948 52.4649 76.9949C54.2648 76.9991 56.0646 77.0025 57.8645 77.0063H63.3172L63.2998 84.9428L63.2824 84.966L56.9712 84.966ZM48.75 73.0182L51.3822 67.6643L48.8154 66.2583H56.5071L60.2254 72.9917L57.7038 71.486C56.895 73.1892 56.0862 74.8924 55.2774 76.5955C54.3466 76.5793 53.4158 76.5631 52.4849 76.5468C50.6699 76.1248 49.4072 74.7004 48.75 73.0182ZM74.4545 76.5146L71.0553 70.2671L77.9233 66.1195L81.2471 72.7603C81.3478 74.3495 78.7747 76.5611 77.1777 76.5439L74.4545 76.5146ZM54.3493 61.8966L57.8582 56.6523C61.2616 55.3882 63.2331 58.1171 64.4773 59.8373L61.1709 66.1657L54.3493 61.8966ZM67.6445 64.7196C66.9387 63.0603 65.9957 61.1624 64.8166 59.5121C63.7608 58.0347 62.4853 56.7457 61.5189 56.1698L70.394 56.1524C71.9879 56.2951 72.7623 57.2218 73.6076 58.4894L74.8838 60.7281L76.856 59.4728L73.1436 66.0674L65.1386 66.0847L67.6445 64.7196Z" fill="#FCFCFC"/>
</svg>
