<svg width="152" height="152" viewBox="0 0 152 152" fill="none" xmlns="http://www.w3.org/2000/svg">
<path d="M120.328 129.07C120.328 135.269 118.409 140.323 114.622 144.103C107.206 151.493 94.5527 151.993 81.8866 151.993C79.157 151.993 75.8132 151.975 73.071 151.993C59.4169 152.038 45.3638 152.076 37.3778 144.11C33.5906 140.329 31.6717 135.276 31.6717 129.076C31.6717 111.865 51.0509 80.772 70.8037 72.0648C66.9785 68.5249 63.4764 62.984 60.2022 56.8795C58.5429 53.7829 60.3162 49.9391 63.7487 49.1792L80.81 45.386C83.5902 44.7654 86.3831 46.4562 87.1367 49.2045C89.4799 57.7787 88.891 65.8336 86.3134 70.8363C103.742 77.3904 120.335 112.618 120.335 129.083L120.328 129.07ZM69.1698 20.531C71.0824 22.0888 72.4693 24.3241 72.9696 26.6608C73.6093 29.6371 76.2312 31.6698 79.157 31.6698C79.594 31.6698 80.0437 31.6255 80.487 31.5305C83.9068 30.8023 86.0854 27.4334 85.3571 24.0138C84.2488 18.8275 81.3419 14.1035 77.1685 10.7093C75.1609 9.0755 73.8499 7.0871 73.3686 4.94671C72.6023 1.5335 69.2141 -0.619547 65.8006 0.15935C62.3871 0.925581 60.2465 4.31346 61.0128 7.72668C62.1211 12.6534 64.9456 17.0861 69.1761 20.5246L69.1698 20.531ZM37.9984 31.6698C37.9984 35.1654 40.8356 38.0023 44.3315 38.0023C47.8273 38.0023 50.6646 35.1654 50.6646 31.6698C50.6646 24.9447 47.422 18.2956 41.9946 13.8692C39.417 11.7668 37.9984 9.0945 37.9984 6.33986C37.9984 2.84433 35.1612 0.00736973 31.6653 0.00736973C28.1695 0.00736973 25.3323 2.84433 25.3323 6.33986C25.3323 12.8877 28.4925 19.2075 34.0023 23.6909C36.4658 25.6983 37.9984 28.7569 37.9984 31.6698ZM107.662 31.6698C107.662 35.1654 110.499 38.0023 113.995 38.0023C117.491 38.0023 120.328 35.1654 120.328 31.6698C120.328 24.9447 117.086 18.2956 111.658 13.8692C109.081 11.7668 107.662 9.0945 107.662 6.33986C107.662 2.84433 104.825 0.00736973 101.329 0.00736973C97.8333 0.00736973 94.996 2.84433 94.996 6.33986C94.996 12.8877 98.1562 19.2075 103.666 23.6909C106.13 25.6983 107.662 28.7569 107.662 31.6698ZM42.2289 78.8152C43.6602 74.7371 44.5468 68.8605 44.6735 63.6299C44.7558 60.0964 41.6336 57.3607 38.1377 57.8547C34.9712 58.3043 31.146 58.8552 28.0302 59.2985C24.7496 59.7671 22.4634 62.9333 23.2424 66.1566C24.2557 70.3424 25.8136 74.3192 27.8338 77.2891C27.8338 77.3018 27.8338 77.3018 27.8212 77.3144C27.8275 77.3271 27.8338 77.3334 27.8402 77.3461C11.0195 83.6596 0 114.416 0 131.597C0 141.285 4.7308 148.207 13.6858 151.607C14.4014 151.734 15.1234 151.861 15.8327 151.987H27.5489C22.0074 145.946 18.9992 138.1 18.9992 129.07C18.9992 114.79 28.5368 94.3108 42.2289 78.8152ZM126.041 78.1693C128.359 75.8453 130.544 72.8057 132.399 69.5761C134.198 66.4479 132.741 62.4521 129.334 61.2742L120.822 58.3233C116.433 56.8035 112.995 58.7412 112.203 62.0658C111.722 64.0859 111.373 66.3972 111.152 69.2468C110.873 72.7994 112.045 76.2632 114.059 79.1952C125.73 95.6597 132.994 117.222 132.994 129.064C132.994 138.094 129.986 145.946 124.445 151.981H135.426C136.117 151.981 136.82 151.867 137.51 151.626C146.991 148.327 152 141.311 152 131.324C152 113.239 141.506 85.5783 126.047 78.163L126.041 78.1693Z" fill="white"/>
</svg>
